<svg xmlns="http://www.w3.org/2000/svg" viewBox="0 0 161.2 52.1"><defs><style>.cls-1{fill:#0e6844;}.cls-2{fill:#5fe8b2;}.cls-3{fill:#2c2c2c;}</style></defs><g id="Layer_2" data-name="Layer 2"><g id="Layer_1-2" data-name="Layer 1"><path class="cls-1" d="M49,15.5l-.7.4C45.1,10.8,41,9.4,38.4,9c-.1-.7-.1-2.3-.1-2.3a1.9,1.9,0,0,0,1-1.6h.2a.9.9,0,0,0,.9-.5h0a1,1,0,0,0-.5-1.3l-1.2-.4a.8.8,0,0,0-.8.2,1.1,1.1,0,0,0,0,1.3l-.3.8c-.3,1,0,1.3,0,1.3a8.7,8.7,0,0,0,0,2.4h-2c-.2-.3-.8-.1-.8-.1l-1.3.5a1.1,1.1,0,0,0-1.5,0,.8.8,0,0,0-.2,1l.5,1.2a1.6,1.6,0,0,0,.8.6c1.2,0,1.2-1.3,1.2-1.3l1.2-.5a.8.8,0,0,0,.3-.6h1.8c.4,4.1,4.1,9.2,4.1,9.2l-.5.3.4.7a8.1,8.1,0,0,1,.7,2.2c.8,4.3,3,5.6,4.7,5.8A22.5,22.5,0,1,1,19.4,5.7v.2a5.6,5.6,0,0,0,11.2,0A5.6,5.6,0,0,0,25,.3a5.4,5.4,0,0,0-5,3.1A24.6,24.6,0,1,0,49.2,27.8a3.7,3.7,0,0,0,1.5-1.3C53.6,22.6,49,15.5,49,15.5ZM25,2.6a3.3,3.3,0,0,1,3.3,3.3A3.3,3.3,0,0,1,25,9.1a3.3,3.3,0,0,1,0-6.5ZM49,25.2a1.4,1.4,0,0,1-1.3.6c-2.2-.3-3-2.9-3.2-4.3a8.5,8.5,0,0,0-1.4-3.4h0l-.6.5c-2.4-2.7-3.8-8.6-3.8-8.6,6.7,1.8,8.8,6.3,8.8,6.3l-.6.3C50.1,21.8,49.6,24.2,49,25.2Z"/><path class="cls-1" d="M25.9,17.1h9.2v-.3h-9C26,16.8,25.9,17,25.9,17.1Z"/><path class="cls-1" d="M13.3,17.3c.1.2.1.4.2.5s.2.3.3.2.2-.1.2-.3V16.5h.1c0,.1.1.1.1.2s.3.4.7.4h1.4a.9.9,0,0,0,.8-.4h0c.1.3.1.6.2.8s.1.3.2.3.2-.1.2-.3.1-.2.1-.3v-.2c.1,0,.1.1.1.2a14.9,14.9,0,0,1,.2,2.1c0,.2.1.4.3.3s.2-.1.2-.2l.3-4.2v-.2h0c0,.1.1.1.1.2a5,5,0,0,0,.2,1.2.6.6,0,0,0,.6.6h1.4a.6.6,0,0,0,.6-.5.6.6,0,0,1,.1-.4l.3.5a.5.5,0,0,0,.8.2c.2-.2.3-.2.5-.1a.9.9,0,0,0,.6.3c0-.2,0-.3-.2-.4h-.2a.7.7,0,0,0-.9,0c-.1.2-.2.1-.3,0l-.3-.5c-.1-.2-.2-.2-.4-.2s-.2.1-.2.3a.4.4,0,0,0-.1.3c-.1.2-.2.3-.4.3H19.8a.3.3,0,0,1-.3-.3L19.2,15c0-.3-.1-.7-.1-1a.3.3,0,0,0-.3-.3c-.1,0-.2.1-.2.3h0c-.1,1.2-.1,2.4-.2,3.6V18h-.1v-.2c-.1-.6-.1-1.3-.2-1.9a.2.2,0,0,0-.2-.2c-.2,0-.2.1-.2.2a2,2,0,0,0-.1.7c0,.1-.1.1-.1.2h0c-.1-.2-.1-.4-.2-.6l-.2-.2a.2.2,0,0,0-.2.2.4.4,0,0,0-.1.3c-.1.2-.2.3-.4.3H14.8l-.3-.2-.3-.5c-.1-.2-.1-.3-.3-.2s-.2.1-.2.3v1.1c-.1,0-.1,0-.1-.1s-.4-.4-.8-.4h-.6v.3H13Z"/><path class="cls-2" d="M41.5,28.7a3.1,3.1,0,0,0-2.2-2c-1.5-6.8-10.2-6.8-10.2-6.8s-2.2-1.1-3.2-1.2l-.2-1.5c-.1-.3.1-.5.3-.7a2,2,0,0,0,1-1.8,2,2,0,0,0-2.1-2,2.1,2.1,0,0,0-1.9,2,2,2,0,0,0,1,1.8.8.8,0,0,1,.4.7l-.2,1.5c-2.6.2-3.3,1.2-3.3,1.2-9.5.5-10,6.8-10,6.8-3.1.8-2.8,5.2-2.8,5.2.2,4.2,2.8,4.4,2.8,4.4,1.3,6.1,7.6,6.8,9.8,6.9a.7.7,0,0,1,.7.7v2.3a.6.6,0,0,0,.8.6l10.6-4.2,1.1-.4a8.6,8.6,0,0,0,5.4-5.9C43.3,34.9,41.5,28.7,41.5,28.7ZM35.8,36c-1.2,4.2-10.6,4-10.6,4s-9.4.2-10.7-4a16.9,16.9,0,0,1,.1-8.8,4,4,0,0,1,1.7-2.3c1.4-.9,3-1.7,8.9-1.8s7.4.9,8.8,1.8a3.8,3.8,0,0,1,1.8,2.3A17.5,17.5,0,0,1,35.8,36Z"/><path class="cls-1" d="M20.1,29.3a1.5,1.5,0,0,0-1.5,1.4v1.5a1.5,1.5,0,0,0,3,0V30.7A1.5,1.5,0,0,0,20.1,29.3Z"/><path class="cls-1" d="M29.9,29.3a1.5,1.5,0,0,0-1.5,1.4v1.5a1.5,1.5,0,0,0,1.5,1.5,1.5,1.5,0,0,0,1.5-1.5V30.7A1.4,1.4,0,0,0,29.9,29.3Z"/><path class="cls-2" d="M25,0a5.8,5.8,0,0,0-5.8,5.9A5.8,5.8,0,0,0,25,11.7a5.9,5.9,0,0,0,5.9-5.8A5.9,5.9,0,0,0,25,0Zm0,9a3.2,3.2,0,0,1,0-6.3,3.2,3.2,0,0,1,3.2,3.2A3.2,3.2,0,0,1,25,9Z"/><polygon class="cls-1" points="70.2 14.9 64.6 14.9 54 43.1 60 43.1 67.2 22.9 74.4 43.1 80.2 43.1 70.2 14.9"/><polygon class="cls-1" points="75.7 14.9 81.1 14.9 91.9 43.1 86.2 43.1 75.7 14.9"/><path class="cls-1" d="M109.1,36H98a3.3,3.3,0,0,0,1,2.3,2.9,2.9,0,0,0,2.1.8,2.6,2.6,0,0,0,2.5-1.5h5.2a6.2,6.2,0,0,1-1.4,2.8,8.6,8.6,0,0,1-2.6,2,10.5,10.5,0,0,1-3.6.7,8.7,8.7,0,0,1-4.2-1,7.1,7.1,0,0,1-2.8-2.9,8.6,8.6,0,0,1-1.1-4.3,8.7,8.7,0,0,1,1.1-4.4A7.1,7.1,0,0,1,97,27.6a9.3,9.3,0,0,1,8.4,0,7.5,7.5,0,0,1,2.8,2.8,8.2,8.2,0,0,1,1,4.2A6.6,6.6,0,0,1,109.1,36Zm-4.9-2.7a2.5,2.5,0,0,0-.9-2,3,3,0,0,0-2.1-.7,3.1,3.1,0,0,0-2.1.7,2.8,2.8,0,0,0-1,2Z"/><path class="cls-1" d="M111.3,30.5a7.1,7.1,0,0,1,2.5-2.9,7.5,7.5,0,0,1,3.6-1,7.3,7.3,0,0,1,2.9.7,4.9,4.9,0,0,1,2,1.8v-8h4.9V42.9h-4.9V40.6a5.9,5.9,0,0,1-2,1.8,5.4,5.4,0,0,1-2.9.7,7.5,7.5,0,0,1-3.6-1,7.1,7.1,0,0,1-2.5-2.9,8.9,8.9,0,0,1-1-4.4A8.5,8.5,0,0,1,111.3,30.5Zm10,1.5a3.4,3.4,0,0,0-5,0,4.1,4.1,0,0,0-1,2.8,4.2,4.2,0,0,0,1,2.9,3.1,3.1,0,0,0,2.5,1.1,3.3,3.3,0,0,0,2.5-1,3.9,3.9,0,0,0,1-2.9A3.8,3.8,0,0,0,121.3,32Z"/><path class="cls-1" d="M132,42.4a7.5,7.5,0,0,1-2.6-2,4.8,4.8,0,0,1-1-2.8h4.8A2,2,0,0,0,134,39a2.9,2.9,0,0,0,1.7.5,2,2,0,0,0,1.4-.4,1.1,1.1,0,0,0,.5-.9,1,1,0,0,0-.7-1l-2.3-.8a14.8,14.8,0,0,1-2.9-.8,5.6,5.6,0,0,1-2-1.4,4.2,4.2,0,0,1-.8-2.6,4.3,4.3,0,0,1,.7-2.5,4.7,4.7,0,0,1,2.3-1.8,9.1,9.1,0,0,1,3.5-.7,6.8,6.8,0,0,1,4.7,1.5,5.7,5.7,0,0,1,2,4h-4.5a1.9,1.9,0,0,0-.7-1.3,2.5,2.5,0,0,0-1.7-.5,2.5,2.5,0,0,0-1.3.3,1,1,0,0,0-.4.9,1,1,0,0,0,.7,1,7,7,0,0,0,2.3.7l2.9.9a4.5,4.5,0,0,1,1.9,1.5,3.6,3.6,0,0,1,.9,2.6,4.1,4.1,0,0,1-.8,2.5,5.6,5.6,0,0,1-2.2,1.8,9.5,9.5,0,0,1-3.5.6A10.6,10.6,0,0,1,132,42.4Z"/><polygon class="cls-2" points="150.6 35.6 147 26.9 141.8 26.9 148.1 41.7 150.6 35.6"/><polygon class="cls-1" points="155.1 26.9 145.7 50.5 151 50.5 160.4 26.9 155.1 26.9"/><polygon class="cls-2" points="75.7 14.9 72.8 22.3 74.9 28.3 78.1 21.3 75.7 14.9"/><path class="cls-3" d="M155.4,21.1V18.9h-.8v-.5h2.1v.5h-.8v2.2Z"/><path class="cls-3" d="M157.1,21.1V18.4h.8l.4,1.8.5-1.8h.8v2.7h-.5V19l-.5,2.1h-.5l-.6-2.1v2.1Z"/><path class="cls-3" d="M157.1,23.8a4.1,4.1,0,0,1,0-8.1,4.1,4.1,0,1,1,0,8.1Zm0-7.8a3.8,3.8,0,0,0,0,7.5,3.8,3.8,0,0,0,0-7.5Z"/></g></g></svg>