<?xml version="1.0" encoding="utf-8"?>
<!-- Generator: Adobe Illustrator 25.4.1, SVG Export Plug-In . SVG Version: 6.00 Build 0)  -->
<svg version="1.1" id="Layer_1" xmlns="http://www.w3.org/2000/svg" xmlns:xlink="http://www.w3.org/1999/xlink" x="0px" y="0px"
	 viewBox="0 0 161.2 52.1" style="enable-background:new 0 0 161.2 52.1;" xml:space="preserve">
<style type="text/css">
	.st0{fill:#FFFFFF;}
</style>
<g id="Layer_2_00000178921033614367791640000002586318767894019462_">
	<g id="Layer_1-2">
		<path class="st0" d="M49,15.5l-0.7,0.4C45.1,10.8,41,9.4,38.4,9c-0.1-0.7-0.1-2.3-0.1-2.3c0.6-0.3,1-0.9,1-1.6h0.2
			c0.4,0,0.7-0.2,0.9-0.5l0,0c0.2-0.5,0-1.1-0.5-1.3l-1.2-0.4c-0.3-0.1-0.6,0-0.8,0.2c-0.3,0.4-0.3,0.9,0,1.3l-0.3,0.8
			c-0.3,1,0,1.3,0,1.3c-0.1,0.8-0.1,1.6,0,2.4h-2c-0.2-0.3-0.8-0.1-0.8-0.1l-1.3,0.5c-0.4-0.4-1.1-0.4-1.5,0c-0.3,0.2-0.4,0.7-0.2,1
			l0.5,1.2c0.2,0.3,0.5,0.5,0.8,0.6c1.2,0,1.2-1.3,1.2-1.3l1.2-0.5c0.2-0.1,0.3-0.4,0.3-0.6h1.8c0.4,4.1,4.1,9.2,4.1,9.2l-0.5,0.3
			l0.4,0.7c0.3,0.7,0.6,1.4,0.7,2.2c0.8,4.3,3,5.6,4.7,5.8c-0.2,12.4-10.4,22.4-22.8,22.2S1.8,39.8,2,27.3C2.1,17,9.3,8,19.4,5.7
			v0.2c0,3.1,2.5,5.6,5.6,5.6c3.1,0,5.6-2.5,5.6-5.6c0-3.1-2.5-5.6-5.6-5.6c-2.1,0-4.1,1.2-5,3.1C6.7,5.9-2.1,18.8,0.4,32.2
			s15.4,22.1,28.8,19.6c11.5-2.2,19.9-12.2,20-23.9c0.6-0.3,1.1-0.7,1.5-1.3C53.6,22.6,49,15.5,49,15.5z M25,2.6
			c1.8,0,3.3,1.5,3.3,3.3c-0.1,1.8-1.5,3.2-3.3,3.2c-1.8-0.3-3-2-2.7-3.8C22.6,3.9,23.6,2.8,25,2.6z M49,25.2
			c-0.3,0.4-0.8,0.7-1.3,0.6c-2.2-0.3-3-2.9-3.2-4.3c-0.2-1.2-0.7-2.4-1.4-3.4l0,0l-0.6,0.5c-2.4-2.7-3.8-8.6-3.8-8.6
			c6.7,1.8,8.8,6.3,8.8,6.3l-0.6,0.3C50.1,21.8,49.6,24.2,49,25.2z"/>
		<path class="st0" d="M25.9,17.1h9.2v-0.3h-9C26,16.8,25.9,17,25.9,17.1z"/>
		<path class="st0" d="M13.3,17.3c0.1,0.2,0.1,0.4,0.2,0.5s0.2,0.3,0.3,0.2s0.2-0.1,0.2-0.3v-1.2h0.1c0,0.1,0.1,0.1,0.1,0.2
			s0.3,0.4,0.7,0.4h1.4c0.3,0,0.6-0.1,0.8-0.4l0,0c0.1,0.3,0.1,0.6,0.2,0.8s0.1,0.3,0.2,0.3s0.2-0.1,0.2-0.3s0.1-0.2,0.1-0.3V17
			c0.1,0,0.1,0.1,0.1,0.2c0.1,0.7,0.2,1.4,0.2,2.1c0,0.2,0.1,0.4,0.3,0.3s0.2-0.1,0.2-0.2l0.3-4.2V15l0,0c0,0.1,0.1,0.1,0.1,0.2
			c0,0.4,0.1,0.8,0.2,1.2c0,0.3,0.3,0.6,0.6,0.6l0,0h1.4c0.3,0,0.6-0.2,0.6-0.5c0-0.1,0-0.3,0.1-0.4l0.3,0.5
			c0.1,0.3,0.4,0.4,0.6,0.3c0.1,0,0.1-0.1,0.2-0.1c0.2-0.2,0.3-0.2,0.5-0.1c0.2,0.2,0.4,0.3,0.6,0.3c0-0.2,0-0.3-0.2-0.4h-0.2
			c-0.3-0.2-0.6-0.2-0.9,0c-0.1,0.2-0.2,0.1-0.3,0l-0.3-0.5c-0.1-0.2-0.2-0.2-0.4-0.2s-0.2,0.1-0.2,0.3c-0.1,0.1-0.1,0.2-0.1,0.3
			c-0.1,0.2-0.2,0.3-0.4,0.3h-1.3c-0.2,0-0.3-0.1-0.3-0.3L19.2,15c0-0.3-0.1-0.7-0.1-1c0-0.2-0.1-0.3-0.3-0.3
			c-0.1,0-0.2,0.1-0.2,0.3l0,0c-0.1,1.2-0.1,2.4-0.2,3.6V18h-0.1v-0.2c-0.1-0.6-0.1-1.3-0.2-1.9c0-0.1-0.1-0.2-0.2-0.2l0,0
			c-0.2,0-0.2,0.1-0.2,0.2c-0.1,0.2-0.1,0.5-0.1,0.7c0,0.1-0.1,0.1-0.1,0.2l0,0c-0.1-0.2-0.1-0.4-0.2-0.6L17.1,16
			c-0.1,0-0.2,0.1-0.2,0.2v0c-0.1,0.1-0.1,0.2-0.1,0.3c-0.1,0.2-0.2,0.3-0.4,0.3h-1.6l-0.3-0.2l-0.3-0.5c-0.1-0.2-0.1-0.3-0.3-0.2
			s-0.2,0.1-0.2,0.3v1.1c-0.1,0-0.1,0-0.1-0.1s-0.4-0.4-0.8-0.4h-0.6v0.3H13L13.3,17.3z"/>
		<path class="st0" d="M41.5,28.7c-0.3-1-1.2-1.8-2.2-2c-1.5-6.8-10.2-6.8-10.2-6.8s-2.2-1.1-3.2-1.2l-0.2-1.5
			c-0.1-0.3,0.1-0.5,0.3-0.7c0.6-0.4,1-1.1,1-1.8c0-1.1-0.9-2-2-2c0,0-0.1,0-0.1,0c-1,0.1-1.9,1-1.9,2c0,0.7,0.4,1.4,1,1.8
			c0.2,0.1,0.4,0.4,0.4,0.7l-0.2,1.5c-2.6,0.2-3.3,1.2-3.3,1.2c-9.5,0.5-10,6.8-10,6.8c-3.1,0.8-2.8,5.2-2.8,5.2
			c0.2,4.2,2.8,4.4,2.8,4.4c1.3,6.1,7.6,6.8,9.8,6.9c0.4,0,0.7,0.3,0.7,0.7l0,0v2.3c0,0.3,0.2,0.6,0.6,0.6c0.1,0,0.2,0,0.2,0
			l10.6-4.2l1.1-0.4c2.7-1,4.7-3.2,5.4-5.9C43.3,34.9,41.5,28.7,41.5,28.7z M35.8,36c-1.2,4.2-10.6,4-10.6,4s-9.4,0.2-10.7-4
			c-0.7-2.9-0.7-5.9,0.1-8.8c0.3-0.9,0.9-1.8,1.7-2.3c1.4-0.9,3-1.7,8.9-1.8s7.4,0.9,8.8,1.8c0.9,0.5,1.5,1.3,1.8,2.3
			C36.5,30.1,36.5,33.1,35.8,36z"/>
		<path class="st0" d="M20.1,29.3c-0.8,0-1.4,0.6-1.5,1.4v1.5c0,0.8,0.7,1.5,1.5,1.5s1.5-0.7,1.5-1.5v-1.5
			C21.5,29.9,20.9,29.3,20.1,29.3z"/>
		<path class="st0" d="M29.9,29.3c-0.8,0-1.4,0.6-1.5,1.4v1.5c0,0.8,0.7,1.5,1.5,1.5s1.5-0.7,1.5-1.5v-1.5c0-0.8-0.6-1.4-1.4-1.4
			C30,29.3,29.9,29.3,29.9,29.3z"/>
		<path class="st0" d="M25,0c-3.2,0-5.8,2.6-5.8,5.8c0,0,0,0.1,0,0.1c0,3.2,2.6,5.8,5.8,5.8c3.2,0,5.8-2.6,5.9-5.8
			C30.9,2.6,28.3,0,25,0z M25,9c-1.7-0.3-2.9-2-2.6-3.7C22.6,4,23.7,2.9,25,2.7c1.8,0,3.2,1.4,3.2,3.2v0C28.1,7.6,26.7,9,25,9z"/>
		<polygon class="st0" points="70.2,14.9 64.6,14.9 54,43.1 60,43.1 67.2,22.9 74.4,43.1 80.2,43.1 		"/>
		<polygon class="st0" points="75.7,14.9 81.1,14.9 91.9,43.1 86.2,43.1 		"/>
		<path class="st0" d="M109.1,36H98c0,0.9,0.4,1.7,1,2.3c0.6,0.5,1.3,0.8,2.1,0.8c1.1,0.1,2.1-0.5,2.5-1.5h5.2c-0.2,1-0.7,2-1.4,2.8
			c-0.7,0.8-1.6,1.5-2.6,2c-1.1,0.4-2.4,0.7-3.6,0.7c-1.5,0-2.9-0.3-4.2-1c-1.2-0.7-2.2-1.7-2.8-2.9c-0.7-1.3-1.1-2.8-1.1-4.3
			c0-1.5,0.4-3.1,1.1-4.4c0.6-1.2,1.6-2.2,2.8-2.9c2.6-1.3,5.8-1.3,8.4,0c1.2,0.7,2.1,1.6,2.8,2.8c0.7,1.3,1,2.7,1,4.2
			C109.2,35.1,109.2,35.5,109.1,36z M104.2,33.3c0-0.8-0.3-1.5-0.9-2c-0.6-0.5-1.3-0.7-2.1-0.7c-0.8,0-1.5,0.2-2.1,0.7
			c-0.6,0.5-1,1.2-1,2H104.2z"/>
		<path class="st0" d="M111.3,30.5c0.6-1.2,1.4-2.2,2.5-2.9c1.1-0.6,2.3-1,3.6-1c1,0,2,0.3,2.9,0.7c0.8,0.4,1.5,1,2,1.8v-8h4.9v21.8
			h-4.9v-2.3c-0.5,0.7-1.2,1.4-2,1.8c-0.9,0.5-1.9,0.7-2.9,0.7c-1.3,0-2.5-0.4-3.6-1c-1.1-0.7-1.9-1.7-2.5-2.9
			c-0.7-1.4-1.1-2.9-1-4.4C110.2,33.3,110.6,31.8,111.3,30.5z M121.3,32c-1.3-1.4-3.4-1.5-4.8-0.2c-0.1,0.1-0.1,0.1-0.2,0.2
			c-0.7,0.8-1,1.8-1,2.8c0,1.1,0.3,2.1,1,2.9c0.6,0.7,1.5,1.1,2.5,1.1c0.9,0,1.8-0.3,2.5-1c0.7-0.8,1.1-1.8,1-2.9
			C122.4,33.8,122,32.8,121.3,32z"/>
		<path class="st0" d="M132,42.4c-1-0.5-1.9-1.1-2.6-2c-0.6-0.8-1-1.8-1-2.8h4.8c0.1,0.6,0.3,1.1,0.8,1.4c0.5,0.3,1.1,0.5,1.7,0.5
			c0.5,0,1-0.1,1.4-0.4c0.3-0.2,0.5-0.5,0.5-0.9c0-0.5-0.3-0.9-0.7-1l-2.3-0.8c-1-0.2-2-0.4-2.9-0.8c-0.8-0.3-1.4-0.8-2-1.4
			c-0.5-0.8-0.8-1.7-0.8-2.6c0-0.9,0.2-1.8,0.7-2.5c0.6-0.8,1.4-1.5,2.3-1.8c1.1-0.5,2.3-0.7,3.5-0.7c1.7-0.1,3.4,0.4,4.7,1.5
			c1.2,1,1.9,2.4,2,4h-4.5c0-0.5-0.3-1-0.7-1.3c-0.5-0.4-1.1-0.5-1.7-0.5c-0.5,0-0.9,0.1-1.3,0.3c-0.3,0.2-0.4,0.6-0.4,0.9
			c0,0.5,0.3,0.9,0.7,1c0.7,0.4,1.5,0.6,2.3,0.7l2.9,0.9c0.8,0.3,1.4,0.8,1.9,1.5c0.6,0.7,1,1.6,0.9,2.6c0,0.9-0.3,1.8-0.8,2.5
			c-0.6,0.8-1.3,1.4-2.2,1.8c-1.1,0.4-2.3,0.6-3.5,0.6C134.4,43.1,133.2,42.9,132,42.4z"/>
		<polygon class="st0" points="150.6,35.6 147,26.9 141.8,26.9 148.1,41.7 		"/>
		<polygon class="st0" points="155.1,26.9 145.7,50.5 151,50.5 160.4,26.9 		"/>
		<polygon class="st0" points="75.7,14.9 72.8,22.3 74.9,28.3 78.1,21.3 		"/>
		<path class="st0" d="M155.4,21.1v-2.2h-0.8v-0.5h2.1v0.5h-0.8v2.2H155.4z"/>
		<path class="st0" d="M157.1,21.1v-2.7h0.8l0.4,1.8l0.5-1.8h0.8v2.7h-0.5V19l-0.5,2.1h-0.5l-0.6-2.1v2.1H157.1z"/>
		<path class="st0" d="M157.1,23.8c-2.2-0.4-3.8-2.5-3.4-4.7c0.3-1.8,1.7-3.1,3.4-3.4c2.2-0.4,4.3,1.2,4.7,3.4s-1.2,4.3-3.4,4.7
			C158,23.9,157.5,23.9,157.1,23.8z M157.1,16c-2.1,0.3-3.5,2.3-3.1,4.4c0.3,1.6,1.5,2.9,3.1,3.1c2.1-0.3,3.5-2.3,3.1-4.4
			C160,17.5,158.7,16.3,157.1,16z"/>
	</g>
</g>
</svg>
